#!OML:ASF G:\JayActor3\Patient Classification 1\Patient 1\Session 5\male.ASF
:FULLY-SPECIFIED
:DEGREES
450
root 20.8926 14.4123 -3.82083 -159.878 87.4218 186.054
lowerback 31.5367 -1.8994 0.651496
upperback 6.69562 -1.57693 -0.422047
thorax -9.72216 -0.472938 -0.297985
lowerneck -5.25107 0.0172877 2.51023
upperneck -13.5399 0.440081 0.559479
head -3.45914 0.26534 -0.265338
rclavicle 6.16232e-015 1.39149e-014
rhumerus -22.6296 7.68546 -85.6909
rradius 48.1363
rwrist -4.40906
rhand -21.1536 -8.07128
rfingers 7.12502
rthumb 5.22606 -37.9868
lclavicle 6.16232e-015 1.39149e-014
lhumerus -21.7447 -6.69627 82.5859
lradius 40.2308
lwrist 24.2752
lhand -19.3521 11.5571
lfingers 7.12502
lthumb 6.96526 41.4225
rfemur -59.7093 -4.05459 31.2588
rtibia 76.6689
rfoot -31.4819 -11.2673
rtoes 0.695088
lfemur -68.1419 11.2719 -15.5299
ltibia 103.369
lfoot -3.62622 -4.79166
ltoes -22.2652
451
root 20.8177 14.4244 -3.82751 -159.37 87.4805 186.444
lowerback 31.3658 -1.8934 0.666081
upperback 6.65519 -1.57358 -0.407498
thorax -9.68681 -0.4755 -0.29277
lowerneck -5.25796 0.032854 2.52234
upperneck -13.5562 0.461753 0.557557
head -3.46345 0.275874 -0.268394
rclavicle 1.63003e-014 1.21259e-014
rhumerus -22.6568 7.68251 -85.7393
rradius 48.1244
rwrist -4.46216
rhand -21.2249 -7.86452
rfingers 7.12502
rthumb 5.1572 -37.7818
lclavicle 1.63003e-014 1.21259e-014
lhumerus -21.8217 -6.69118 82.5497
lradius 40.2409
lwrist 24.2956
lhand -19.3137 11.5601
lfingers 7.12502
lthumb 7.00234 41.4242
rfemur -60.0599 -4.16762 31.2799
rtibia 76.4368
rfoot -31.1032 -11.1596
rtoes 0.223345
lfemur -67.1012 11.355 -15.2363
ltibia 103.784
lfoot -2.63309 -5.36802
ltoes -21.6721
452
root 20.7426 14.4365 -3.8349 -158.967 87.5417 186.729
lowerback 31.1992 -1.88842 0.678314
upperback 6.61455 -1.57247 -0.396051
thorax -9.65359 -0.478995 -0.288831
lowerneck -5.2563 0.0477621 2.52858
upperneck -13.5811 0.483666 0.560251
head -3.47233 0.286618 -0.269001
rclavicle -5.56597e-015 5.56597e-015
rhumerus -22.7008 7.69656 -85.7902
rradius 48.1586
rwrist -4.52506
rhand -21.2485 -7.77695
rfingers 7.12502
rthumb 5.13445 -37.6948
lclavicle -5.56597e-015 5.56597e-015
lhumerus -21.8917 -6.68282 82.5102
lradius 40.2493
lwrist 24.3171
lhand -19.2738 11.5624
lfingers 7.12502
lthumb 7.04081 41.4253
rfemur -60.4073 -4.26241 31.2903
rtibia 76.2034
rfoot -30.7307 -11.0583
rtoes -0.199349
lfemur -66.0351 11.3861 -14.9678
ltibia 104.084
lfoot -1.72508 -5.94932
ltoes -21.1228
453
root 20.6672 14.4476 -3.843 -158.684 87.6093 186.9
lowerback 31.0391 -1.88271 0.684215
upperback 6.57408 -1.57272 -0.389031
thorax -9.62309 -0.482905 -0.285677
lowerneck -5.24428 0.0619484 2.53561
upperneck -13.6137 0.505216 0.564271
head -3.48586 0.297008 -0.269377
rclavicle -2.78299e-015 -1.43125e-014
rhumerus -22.7632 7.72929 -85.8466
rradius 48.2399
rwrist -4.58695
rhand -21.2334 -7.84146
rfingers 7.12502
rthumb 5.14899 -37.7589
lclavicle -2.78299e-015 -1.43125e-014
lhumerus -21.9526 -6.66799 82.4654
lradius 40.2492
lwrist 24.3422
lhand -19.2455 11.5549
lfingers 7.12502
lthumb 7.06818 41.4169
rfemur -60.7567 -4.33086 31.2826
rtibia 75.9813
rfoot -30.362 -10.956
rtoes -0.598723
lfemur -64.9544 11.376 -14.729
ltibia 104.278
lfoot -0.981625 -6.57164
ltoes -20.8413
454
root 20.5919 14.4576 -3.85199 -158.367 87.6841 187.117
lowerback 30.892 -1.8763 0.689961
upperback 6.53701 -1.57174 -0.385536
thorax -9.59483 -0.485991 -0.286791
lowerneck -5.22871 0.0760075 2.5434
upperneck -13.6481 0.526426 0.565797
head -3.50068 0.307228 -0.270718
rclavicle -8.74653e-015 3.97569e-015
rhumerus -22.8369 7.77874 -85.9068
rradius 48.3586
rwrist -4.64125
rhand -21.2078 -8.03097
rfingers 7.12502
rthumb 5.17376 -37.9478
lclavicle -8.74653e-015 3.97569e-015
lhumerus -22.0011 -6.64692 82.4162
lradius 40.2397
lwrist 24.3733
lhand -19.2374 11.5454
lfingers 7.12502
lthumb 7.07603 41.4071
rfemur -61.0921 -4.37035 31.2576
rtibia 75.7708
rfoot -30.001 -10.8381
rtoes -0.958078
lfemur -63.8527 11.3302 -14.5133
ltibia 104.37
lfoot -0.355631 -7.2447
ltoes -20.7197
455
root 20.5167 14.4654 -3.86208 -157.94 87.7632 187.462
lowerback 30.7595 -1.8706 0.700364
upperback 6.50466 -1.56953 -0.384383
thorax -9.56826 -0.488273 -0.293602
lowerneck -5.2071 0.0882026 2.55087
upperneck -13.6832 0.545114 0.567098
head -3.51686 0.316104 -0.272072
rclavicle 1.5704e-014 6.16232e-015
rhumerus -22.9171 7.83792 -85.9661
rradius 48.4831
rwrist -4.68744
rhand -21.1843 -8.21826
rfingers 7.12502
rthumb 5.19638 -38.1345
lclavicle 1.5704e-014 6.16232e-015
lhumerus -22.037 -6.61762 82.3641
lradius 40.2197
lwrist 24.4019
lhand -19.2451 11.5381
lfingers 7.12502
lthumb 7.06855 41.4001
rfemur -61.4154 -4.38301 31.2177
rtibia 75.5799
rfoot -29.6586 -10.6669
rtoes -1.16505
lfemur -62.7403 11.2592 -14.32
ltibia 104.375
lfoot 0.167972 -7.97117
ltoes -20.6947
